<svg xmlns="http://www.w3.org/2000/svg" width="500" height="500" viewBox="0 0 500 500" version="1.1"><path d="M 197 165.871 C 162.657 173.388, 138.039 199.573, 135.345 231.452 L 134.707 239 142.853 239 L 151 239 151.017 234.250 C 151.047 226.043, 153.790 215.836, 158.564 206.164 C 171.615 179.724, 199.922 165.936, 229.972 171.380 C 247.259 174.513, 260.114 183.716, 266.766 197.722 C 268.686 201.767, 270.051 205.282, 269.798 205.535 C 269.545 205.788, 265.957 206.860, 261.826 207.917 C 246.321 211.882, 232.783 219.901, 222.608 231.144 C 219.524 234.552, 217 237.714, 217 238.170 C 217 238.627, 220.174 239, 224.052 239 L 231.105 239 239.302 230.750 C 251.750 218.222, 264.105 212.629, 282 211.420 C 304.157 209.922, 326.350 220.004, 334.028 235.056 C 335.348 237.642, 336.722 239, 338.020 239 C 340.350 239, 340.334 239.235, 338.811 227.794 L 337.621 218.860 328.561 214.453 C 314.679 207.700, 306.280 205.819, 288 205.366 L 272.500 204.981 270.533 191.408 L 268.567 177.834 259.533 173.440 C 246.118 166.914, 237.238 164.886, 220 164.410 C 208.451 164.092, 203.770 164.389, 197 165.871 M 115 246 C 112.731 248.269, 112.565 249.318, 114.035 252.066 C 114.753 253.407, 116.133 254, 118.535 254 C 121.564 254, 122 253.686, 122 251.500 C 122 249.551, 121.504 249.017, 119.750 249.079 C 118.513 249.122, 118.063 249.385, 118.750 249.662 C 120.722 250.458, 120.207 252, 117.969 252 C 115.418 252, 114.365 249.470, 116.064 247.423 C 116.905 246.409, 118.243 246.072, 119.926 246.451 C 122.388 247.005, 122.416 246.965, 120.559 245.515 C 118.035 243.545, 117.399 243.601, 115 246 M 243.250 245.031 C 241.639 245.679, 241 246.762, 241 248.845 C 241 252.388, 242.829 254.075, 246.354 253.783 C 248.378 253.615, 249 253.028, 249 251.282 C 249 249.942, 248.394 249, 247.531 249 C 246.637 249, 246.288 249.586, 246.638 250.500 C 247.033 251.529, 246.578 252, 245.190 252 C 242.756 252, 241.924 250.171, 243.217 247.662 C 243.902 246.334, 244.835 245.993, 246.582 246.431 C 249.245 247.100, 249.943 245.576, 247.418 244.607 C 246.548 244.273, 245.761 244.029, 245.668 244.063 C 245.576 244.098, 244.488 244.534, 243.250 245.031 M 263.223 245.557 C 259.326 248.286, 260.867 254, 265.500 254 C 269.778 254, 271.604 248.747, 268.429 245.571 C 266.476 243.619, 265.991 243.618, 263.223 245.557 M 283.250 244.662 C 281.239 245.474, 281.782 249.130, 284 249.710 C 285.100 249.998, 286 250.856, 286 251.617 C 286 253.312, 284.799 253.399, 283.217 251.817 C 282.566 251.166, 281.718 250.948, 281.333 251.333 C 280.137 252.529, 282.649 254.186, 285.124 253.835 C 288.445 253.363, 288.740 250.294, 285.603 248.865 C 282.599 247.496, 283.202 245.612, 286.326 246.604 C 288.239 247.211, 288.329 247.101, 287.120 245.644 C 285.696 243.928, 285.311 243.831, 283.250 244.662 M 134.752 249.179 C 133.791 251.466, 133.290 253.599, 133.639 253.919 C 133.988 254.238, 134.475 253.938, 134.720 253.250 C 134.966 252.563, 136.217 252, 137.500 252 C 138.783 252, 140.034 252.563, 140.280 253.250 C 140.525 253.938, 141.008 254.242, 141.352 253.927 C 142.280 253.079, 138.878 244.998, 137.598 245.010 C 136.994 245.016, 135.713 246.892, 134.752 249.179 M 153 249.500 C 153 251.975, 153.450 254, 154 254 C 154.550 254, 155 253, 155 251.777 L 155 249.555 156.557 251.777 C 157.413 253, 158.875 253.986, 159.807 253.968 C 161.307 253.940, 161.283 253.772, 159.602 252.499 C 158.039 251.317, 157.926 250.794, 158.963 249.544 C 160.895 247.216, 159.465 245, 156.031 245 C 153.105 245, 153 245.156, 153 249.500 M 172.286 249.500 C 172.294 252.250, 172.488 253.256, 172.718 251.736 C 172.947 250.216, 172.941 247.966, 172.704 246.736 C 172.467 245.506, 172.279 246.750, 172.286 249.500 M 186.118 249.750 C 186.221 253.892, 186.327 254.116, 186.946 251.500 L 187.656 248.500 188.988 251.250 C 190.595 254.565, 191.633 254.733, 192.555 251.827 L 193.245 249.654 194.587 252.077 C 195.863 254.382, 195.931 254.268, 195.965 249.750 C 196.005 244.326, 194.813 243.623, 193 248 C 192.317 249.650, 191.417 251, 191 251 C 190.583 251, 189.683 249.650, 189 248 C 187.180 243.607, 185.983 244.334, 186.118 249.750 M 209.087 249.250 C 208.080 251.588, 207.379 253.644, 207.530 253.819 C 207.682 253.995, 208.749 253.549, 209.903 252.829 C 211.589 251.775, 212.392 251.763, 214 252.768 C 215.100 253.455, 216 253.797, 216 253.529 C 216 251.934, 212.626 245, 211.850 245 C 211.338 245, 210.094 246.912, 209.087 249.250 M 299.385 246.750 C 299.671 247.713, 300.200 249.738, 300.561 251.250 C 301.453 254.990, 303.586 254.718, 304.492 250.750 L 305.234 247.500 306.271 250.782 C 306.841 252.587, 307.758 253.914, 308.309 253.730 C 309.590 253.303, 312.077 245, 310.923 245 C 310.447 245, 309.641 246.463, 309.133 248.250 L 308.209 251.500 307.480 248.250 C 307.078 246.463, 306.196 245, 305.520 245 C 304.843 245, 303.852 246.463, 303.318 248.250 L 302.346 251.500 301.593 248.250 C 301.180 246.463, 300.397 245, 299.853 245 C 299.310 245, 299.099 245.787, 299.385 246.750 M 323.752 249.179 C 322.791 251.466, 322.290 253.599, 322.639 253.919 C 322.988 254.238, 323.475 253.938, 323.720 253.250 C 323.966 252.563, 325.217 252, 326.500 252 C 327.783 252, 329.034 252.563, 329.280 253.250 C 329.525 253.938, 330.008 254.242, 330.352 253.927 C 331.280 253.079, 327.878 244.998, 326.598 245.010 C 325.994 245.016, 324.713 246.892, 323.752 249.179 M 343 247.918 C 343 249.523, 342.727 251.548, 342.393 252.418 C 342.059 253.288, 342.284 254, 342.893 254 C 343.502 254, 344.018 252.762, 344.040 251.250 L 344.080 248.500 345.572 251.250 C 347.383 254.588, 348.355 254.704, 349.780 251.750 L 350.865 249.500 350.932 251.750 C 351.062 256.070, 353 253.962, 353 249.500 C 353 244.195, 351.702 243.742, 349.377 248.237 L 347.703 251.474 346.170 248.237 C 344.266 244.216, 343 244.089, 343 247.918 M 365 249.500 C 365 251.975, 365.450 254, 366 254 C 366.550 254, 367 251.975, 367 249.500 C 367 247.025, 366.550 245, 366 245 C 365.450 245, 365 247.025, 365 249.500 M 155 247.583 C 155 249.349, 157.153 249.042, 157.771 247.188 C 157.989 246.534, 157.454 246, 156.583 246 C 155.713 246, 155 246.713, 155 247.583 M 263.701 246.632 C 262.459 247.874, 262.955 251.769, 264.427 252.334 C 266.248 253.032, 268.269 250.636, 267.821 248.310 C 267.463 246.450, 264.919 245.414, 263.701 246.632 M 139.051 266.650 C 145.848 286.405, 163.390 303.992, 184.367 312.081 C 188.721 313.760, 196.912 315.869, 202.569 316.766 L 212.855 318.398 215.060 322.320 C 221.333 333.483, 238.591 347.383, 253.142 352.995 C 272.259 360.367, 297.823 360.801, 316.205 354.065 C 319.283 352.938, 324.758 352.004, 329.283 351.837 L 337.065 351.548 341.148 359.938 C 353.190 384.684, 379.674 396.853, 410 391.575 C 420.834 389.690, 427 388.014, 427 386.955 C 427 386.555, 420.328 386.464, 412.174 386.753 C 400.516 387.166, 395.753 386.923, 389.881 385.617 C 371.157 381.451, 358.262 370.721, 351.919 354.030 L 350.035 349.070 354.017 347.877 C 359.243 346.311, 359.112 344.767, 353.786 345.151 C 349.715 345.445, 349.545 345.338, 348.753 341.978 C 348.303 340.065, 347.669 329.500, 347.345 318.500 C 346.640 294.568, 347.324 290.598, 352.527 288.424 C 354.402 287.641, 357.075 287, 358.468 287 C 359.861 287, 361 286.550, 361 286 C 361 285.366, 353.500 285, 340.500 285 C 327.500 285, 320 285.366, 320 286 C 320 286.550, 321.058 287, 322.351 287 C 323.644 287, 326.167 287.511, 327.958 288.135 C 333.270 289.987, 334 293.207, 334 314.781 L 334 333.626 331.250 336.188 C 325.293 341.738, 320.269 344.273, 316.595 343.584 C 309.853 342.319, 299.529 336.236, 293.630 330.051 C 282.690 318.582, 279.246 307.159, 278.313 279.250 L 277.702 261 271.351 261 L 265 261 265 276.922 L 265 292.844 260.750 296.491 C 252.719 303.382, 230.295 312.478, 225.692 310.712 C 222.707 309.567, 220.500 297.360, 220.500 282 C 220.500 274.025, 220.826 266.038, 221.225 264.250 L 221.950 261 214.020 261 L 206.091 261 205.295 264.750 C 204.858 266.813, 204.537 275.025, 204.583 283 C 204.651 294.943, 205.041 298.639, 206.793 303.957 C 207.962 307.508, 208.721 310.613, 208.478 310.855 C 208.235 311.098, 204.991 310.555, 201.268 309.649 C 180.751 304.657, 162.731 288.416, 155.397 268.307 L 152.732 261 144.920 261 L 137.108 261 139.051 266.650 M 260.500 306.421 C 253.812 310.803, 244.040 314.587, 235.500 316.103 C 231.650 316.786, 228.347 317.458, 228.160 317.596 C 227.974 317.733, 229.634 320.516, 231.850 323.779 C 240.583 336.639, 255.089 346.848, 270 350.627 C 277.834 352.613, 293.171 352.818, 301.447 351.048 L 307.393 349.777 299.045 345.785 C 287.436 340.234, 277.772 330.568, 272.167 318.899 C 269.948 314.280, 267.828 308.813, 267.455 306.750 C 267.082 304.688, 266.490 303.033, 266.139 303.073 C 265.787 303.113, 263.250 304.620, 260.500 306.421" stroke="none" fill="#f4f4f4" fill-rule="evenodd"/><path d="M 0 250.002 L 0 500.004 250.250 499.752 L 500.500 499.500 500.752 249.750 L 501.004 0 250.502 0 L 0 0 0 250.002 M 0.492 250.500 C 0.492 388, 0.608 444.101, 0.750 375.170 C 0.892 306.238, 0.892 193.738, 0.750 125.170 C 0.608 56.601, 0.492 113, 0.492 250.500 M 197 165.871 C 162.657 173.388, 138.039 199.573, 135.345 231.452 L 134.707 239 142.853 239 L 151 239 151.017 234.250 C 151.047 226.043, 153.790 215.836, 158.564 206.164 C 171.615 179.724, 199.922 165.936, 229.972 171.380 C 247.259 174.513, 260.114 183.716, 266.766 197.722 C 268.686 201.767, 270.051 205.282, 269.798 205.535 C 269.545 205.788, 265.957 206.860, 261.826 207.917 C 246.321 211.882, 232.783 219.901, 222.608 231.144 C 219.524 234.552, 217 237.714, 217 238.170 C 217 238.627, 220.174 239, 224.052 239 L 231.105 239 239.302 230.750 C 251.750 218.222, 264.105 212.629, 282 211.420 C 304.157 209.922, 326.350 220.004, 334.028 235.056 C 335.348 237.642, 336.722 239, 338.020 239 C 340.350 239, 340.334 239.235, 338.811 227.794 L 337.621 218.860 328.561 214.453 C 314.679 207.700, 306.280 205.819, 288 205.366 L 272.500 204.981 270.533 191.408 L 268.567 177.834 259.533 173.440 C 246.118 166.914, 237.238 164.886, 220 164.410 C 208.451 164.092, 203.770 164.389, 197 165.871 M 115 246 C 112.731 248.269, 112.565 249.318, 114.035 252.066 C 114.753 253.407, 116.133 254, 118.535 254 C 121.564 254, 122 253.686, 122 251.500 C 122 249.551, 121.504 249.017, 119.750 249.079 C 118.513 249.122, 118.063 249.385, 118.750 249.662 C 120.722 250.458, 120.207 252, 117.969 252 C 115.418 252, 114.365 249.470, 116.064 247.423 C 116.905 246.409, 118.243 246.072, 119.926 246.451 C 122.388 247.005, 122.416 246.965, 120.559 245.515 C 118.035 243.545, 117.399 243.601, 115 246 M 243.250 245.031 C 241.639 245.679, 241 246.762, 241 248.845 C 241 252.388, 242.829 254.075, 246.354 253.783 C 248.378 253.615, 249 253.028, 249 251.282 C 249 249.942, 248.394 249, 247.531 249 C 246.637 249, 246.288 249.586, 246.638 250.500 C 247.033 251.529, 246.578 252, 245.190 252 C 242.756 252, 241.924 250.171, 243.217 247.662 C 243.902 246.334, 244.835 245.993, 246.582 246.431 C 249.245 247.100, 249.943 245.576, 247.418 244.607 C 246.548 244.273, 245.761 244.029, 245.668 244.063 C 245.576 244.098, 244.488 244.534, 243.250 245.031 M 263.223 245.557 C 259.326 248.286, 260.867 254, 265.500 254 C 269.778 254, 271.604 248.747, 268.429 245.571 C 266.476 243.619, 265.991 243.618, 263.223 245.557 M 283.250 244.662 C 281.239 245.474, 281.782 249.130, 284 249.710 C 285.100 249.998, 286 250.856, 286 251.617 C 286 253.312, 284.799 253.399, 283.217 251.817 C 282.566 251.166, 281.718 250.948, 281.333 251.333 C 280.137 252.529, 282.649 254.186, 285.124 253.835 C 288.445 253.363, 288.740 250.294, 285.603 248.865 C 282.599 247.496, 283.202 245.612, 286.326 246.604 C 288.239 247.211, 288.329 247.101, 287.120 245.644 C 285.696 243.928, 285.311 243.831, 283.250 244.662 M 134.752 249.179 C 133.791 251.466, 133.290 253.599, 133.639 253.919 C 133.988 254.238, 134.475 253.938, 134.720 253.250 C 134.966 252.563, 136.217 252, 137.500 252 C 138.783 252, 140.034 252.563, 140.280 253.250 C 140.525 253.938, 141.008 254.242, 141.352 253.927 C 142.280 253.079, 138.878 244.998, 137.598 245.010 C 136.994 245.016, 135.713 246.892, 134.752 249.179 M 153 249.500 C 153 251.975, 153.450 254, 154 254 C 154.550 254, 155 253, 155 251.777 L 155 249.555 156.557 251.777 C 157.413 253, 158.875 253.986, 159.807 253.968 C 161.307 253.940, 161.283 253.772, 159.602 252.499 C 158.039 251.317, 157.926 250.794, 158.963 249.544 C 160.895 247.216, 159.465 245, 156.031 245 C 153.105 245, 153 245.156, 153 249.500 M 172.286 249.500 C 172.294 252.250, 172.488 253.256, 172.718 251.736 C 172.947 250.216, 172.941 247.966, 172.704 246.736 C 172.467 245.506, 172.279 246.750, 172.286 249.500 M 186.118 249.750 C 186.221 253.892, 186.327 254.116, 186.946 251.500 L 187.656 248.500 188.988 251.250 C 190.595 254.565, 191.633 254.733, 192.555 251.827 L 193.245 249.654 194.587 252.077 C 195.863 254.382, 195.931 254.268, 195.965 249.750 C 196.005 244.326, 194.813 243.623, 193 248 C 192.317 249.650, 191.417 251, 191 251 C 190.583 251, 189.683 249.650, 189 248 C 187.180 243.607, 185.983 244.334, 186.118 249.750 M 209.087 249.250 C 208.080 251.588, 207.379 253.644, 207.530 253.819 C 207.682 253.995, 208.749 253.549, 209.903 252.829 C 211.589 251.775, 212.392 251.763, 214 252.768 C 215.100 253.455, 216 253.797, 216 253.529 C 216 251.934, 212.626 245, 211.850 245 C 211.338 245, 210.094 246.912, 209.087 249.250 M 299.385 246.750 C 299.671 247.713, 300.200 249.738, 300.561 251.250 C 301.453 254.990, 303.586 254.718, 304.492 250.750 L 305.234 247.500 306.271 250.782 C 306.841 252.587, 307.758 253.914, 308.309 253.730 C 309.590 253.303, 312.077 245, 310.923 245 C 310.447 245, 309.641 246.463, 309.133 248.250 L 308.209 251.500 307.480 248.250 C 307.078 246.463, 306.196 245, 305.520 245 C 304.843 245, 303.852 246.463, 303.318 248.250 L 302.346 251.500 301.593 248.250 C 301.180 246.463, 300.397 245, 299.853 245 C 299.310 245, 299.099 245.787, 299.385 246.750 M 323.752 249.179 C 322.791 251.466, 322.290 253.599, 322.639 253.919 C 322.988 254.238, 323.475 253.938, 323.720 253.250 C 323.966 252.563, 325.217 252, 326.500 252 C 327.783 252, 329.034 252.563, 329.280 253.250 C 329.525 253.938, 330.008 254.242, 330.352 253.927 C 331.280 253.079, 327.878 244.998, 326.598 245.010 C 325.994 245.016, 324.713 246.892, 323.752 249.179 M 343 247.918 C 343 249.523, 342.727 251.548, 342.393 252.418 C 342.059 253.288, 342.284 254, 342.893 254 C 343.502 254, 344.018 252.762, 344.040 251.250 L 344.080 248.500 345.572 251.250 C 347.383 254.588, 348.355 254.704, 349.780 251.750 L 350.865 249.500 350.932 251.750 C 351.062 256.070, 353 253.962, 353 249.500 C 353 244.195, 351.702 243.742, 349.377 248.237 L 347.703 251.474 346.170 248.237 C 344.266 244.216, 343 244.089, 343 247.918 M 365 249.500 C 365 251.975, 365.450 254, 366 254 C 366.550 254, 367 251.975, 367 249.500 C 367 247.025, 366.550 245, 366 245 C 365.450 245, 365 247.025, 365 249.500 M 155 247.583 C 155 249.349, 157.153 249.042, 157.771 247.188 C 157.989 246.534, 157.454 246, 156.583 246 C 155.713 246, 155 246.713, 155 247.583 M 263.701 246.632 C 262.459 247.874, 262.955 251.769, 264.427 252.334 C 266.248 253.032, 268.269 250.636, 267.821 248.310 C 267.463 246.450, 264.919 245.414, 263.701 246.632 M 139.051 266.650 C 145.848 286.405, 163.390 303.992, 184.367 312.081 C 188.721 313.760, 196.912 315.869, 202.569 316.766 L 212.855 318.398 215.060 322.320 C 221.333 333.483, 238.591 347.383, 253.142 352.995 C 272.259 360.367, 297.823 360.801, 316.205 354.065 C 319.283 352.938, 324.758 352.004, 329.283 351.837 L 337.065 351.548 341.148 359.938 C 353.190 384.684, 379.674 396.853, 410 391.575 C 420.834 389.690, 427 388.014, 427 386.955 C 427 386.555, 420.328 386.464, 412.174 386.753 C 400.516 387.166, 395.753 386.923, 389.881 385.617 C 371.157 381.451, 358.262 370.721, 351.919 354.030 L 350.035 349.070 354.017 347.877 C 359.243 346.311, 359.112 344.767, 353.786 345.151 C 349.715 345.445, 349.545 345.338, 348.753 341.978 C 348.303 340.065, 347.669 329.500, 347.345 318.500 C 346.640 294.568, 347.324 290.598, 352.527 288.424 C 354.402 287.641, 357.075 287, 358.468 287 C 359.861 287, 361 286.550, 361 286 C 361 285.366, 353.500 285, 340.500 285 C 327.500 285, 320 285.366, 320 286 C 320 286.550, 321.058 287, 322.351 287 C 323.644 287, 326.167 287.511, 327.958 288.135 C 333.270 289.987, 334 293.207, 334 314.781 L 334 333.626 331.250 336.188 C 325.293 341.738, 320.269 344.273, 316.595 343.584 C 309.853 342.319, 299.529 336.236, 293.630 330.051 C 282.690 318.582, 279.246 307.159, 278.313 279.250 L 277.702 261 271.351 261 L 265 261 265 276.922 L 265 292.844 260.750 296.491 C 252.719 303.382, 230.295 312.478, 225.692 310.712 C 222.707 309.567, 220.500 297.360, 220.500 282 C 220.500 274.025, 220.826 266.038, 221.225 264.250 L 221.950 261 214.020 261 L 206.091 261 205.295 264.750 C 204.858 266.813, 204.537 275.025, 204.583 283 C 204.651 294.943, 205.041 298.639, 206.793 303.957 C 207.962 307.508, 208.721 310.613, 208.478 310.855 C 208.235 311.098, 204.991 310.555, 201.268 309.649 C 180.751 304.657, 162.731 288.416, 155.397 268.307 L 152.732 261 144.920 261 L 137.108 261 139.051 266.650 M 260.500 306.421 C 253.812 310.803, 244.040 314.587, 235.500 316.103 C 231.650 316.786, 228.347 317.458, 228.160 317.596 C 227.974 317.733, 229.634 320.516, 231.850 323.779 C 240.583 336.639, 255.089 346.848, 270 350.627 C 277.834 352.613, 293.171 352.818, 301.447 351.048 L 307.393 349.777 299.045 345.785 C 287.436 340.234, 277.772 330.568, 272.167 318.899 C 269.948 314.280, 267.828 308.813, 267.455 306.750 C 267.082 304.688, 266.490 303.033, 266.139 303.073 C 265.787 303.113, 263.250 304.620, 260.500 306.421" stroke="none" fill="#040404" fill-rule="evenodd"/></svg>